PathFileType	4	(X/Y/Z)	/Users/giacomo/dev/rowing-video-analysis/sports2d_app/runs/gb8_20260203_210816/sports2d/input_Sports2D/input_Sports2D_px_person00.trc
DataRate	CameraRate	NumFrames	NumMarkers	Units	OrigDataRate	OrigDataStartFrame	OrigNumFrames
50.0	50.0	4	133	m	50.0	398	638
Frame#	Time	RHip			RKnee			RAnkle			RBigToe			RSmallToe			RHeel			LHip			LKnee			LAnkle			LBigToe			LSmallToe			LHeel			Nose			REye			LEye			REar			LEar			RShoulder			RElbow			RWrist			RThumb1			RThumb			RThumb3			RThumb4			RIndex			RIndex2			RIndex3			RIndex4			RMiddle1			RMiddle2			RMiddle3			RMiddle4			RRing1			RRing2			RRing3			RRing4			RPinky			RPinky2			RPinky3			RPinky4			LShoulder			LElbow			LWrist			LThumb1			LThumb			LThumb3			LThumb4			LIndex			LIndex2			LIndex3			LIndex4			LMiddle1			LMiddle2			LMiddle3			LMiddle4			LRing1			LRing2			LRing3			LRing4			LPinky			LPinky2			LPinky3			LPinky4			Jaw1			Jaw2			Jaw3			Jaw4			Jaw5			Jaw6			Jaw7			Jaw8			Jaw9			Jaw10			Jaw11			Jaw12			Jaw13			Jaw14			Jaw15			Jaw16			Jaw17			EyebrowR1			EyebrowR2			EyebrowR3			EyebrowR4			EyebrowR5			EyebrowL1			EyebrowL2			EyebrowL3			EyebrowL4			EyebrowL5			Nose1			Nose2			Nose3			Nose4			Nose5			Nose6			Nose7			Nose8			Nose9			REye1			REye2			REye3			REye4			REye5			REye6			LEye1			LEye2			LEye3			LEye4			LEye5			LEye6			Mouth1			Mouth2			Mouth3			Mouth4			Mouth5			Mouth6			Mouth7			Mouth8			Mouth9			Mouth10			Mouth11			Mouth12			Mouth13			Mouth14			Mouth15			Mouth16			Mouth17			Mouth18			Mouth19			Mouth20			Hip			Neck			
		X1	Y1	Z1	X2	Y2	Z2	X3	Y3	Z3	X4	Y4	Z4	X5	Y5	Z5	X6	Y6	Z6	X7	Y7	Z7	X8	Y8	Z8	X9	Y9	Z9	X10	Y10	Z10	X11	Y11	Z11	X12	Y12	Z12	X13	Y13	Z13	X14	Y14	Z14	X15	Y15	Z15	X16	Y16	Z16	X17	Y17	Z17	X18	Y18	Z18	X19	Y19	Z19	X20	Y20	Z20	X21	Y21	Z21	X22	Y22	Z22	X23	Y23	Z23	X24	Y24	Z24	X25	Y25	Z25	X26	Y26	Z26	X27	Y27	Z27	X28	Y28	Z28	X29	Y29	Z29	X30	Y30	Z30	X31	Y31	Z31	X32	Y32	Z32	X33	Y33	Z33	X34	Y34	Z34	X35	Y35	Z35	X36	Y36	Z36	X37	Y37	Z37	X38	Y38	Z38	X39	Y39	Z39	X40	Y40	Z40	X41	Y41	Z41	X42	Y42	Z42	X43	Y43	Z43	X44	Y44	Z44	X45	Y45	Z45	X46	Y46	Z46	X47	Y47	Z47	X48	Y48	Z48	X49	Y49	Z49	X50	Y50	Z50	X51	Y51	Z51	X52	Y52	Z52	X53	Y53	Z53	X54	Y54	Z54	X55	Y55	Z55	X56	Y56	Z56	X57	Y57	Z57	X58	Y58	Z58	X59	Y59	Z59	X60	Y60	Z60	X61	Y61	Z61	X62	Y62	Z62	X63	Y63	Z63	X64	Y64	Z64	X65	Y65	Z65	X66	Y66	Z66	X67	Y67	Z67	X68	Y68	Z68	X69	Y69	Z69	X70	Y70	Z70	X71	Y71	Z71	X72	Y72	Z72	X73	Y73	Z73	X74	Y74	Z74	X75	Y75	Z75	X76	Y76	Z76	X77	Y77	Z77	X78	Y78	Z78	X79	Y79	Z79	X80	Y80	Z80	X81	Y81	Z81	X82	Y82	Z82	X83	Y83	Z83	X84	Y84	Z84	X85	Y85	Z85	X86	Y86	Z86	X87	Y87	Z87	X88	Y88	Z88	X89	Y89	Z89	X90	Y90	Z90	X91	Y91	Z91	X92	Y92	Z92	X93	Y93	Z93	X94	Y94	Z94	X95	Y95	Z95	X96	Y96	Z96	X97	Y97	Z97	X98	Y98	Z98	X99	Y99	Z99	X100	Y100	Z100	X101	Y101	Z101	X102	Y102	Z102	X103	Y103	Z103	X104	Y104	Z104	X105	Y105	Z105	X106	Y106	Z106	X107	Y107	Z107	X108	Y108	Z108	X109	Y109	Z109	X110	Y110	Z110	X111	Y111	Z111	X112	Y112	Z112	X113	Y113	Z113	X114	Y114	Z114	X115	Y115	Z115	X116	Y116	Z116	X117	Y117	Z117	X118	Y118	Z118	X119	Y119	Z119	X120	Y120	Z120	X121	Y121	Z121	X122	Y122	Z122	X123	Y123	Z123	X124	Y124	Z124	X125	Y125	Z125	X126	Y126	Z126	X127	Y127	Z127	X128	Y128	Z128	X129	Y129	Z129	X130	Y130	Z130	X131	Y131	Z131	X132	Y132	Z132	X133	Y133	Z133
398	7.9724960753532175	30.03580835010586	567.2079804490944	0.0	218.06746576280966	591.0356392896443	0.0	281.0437753613778	773.9256927482575	0.0	288.4732877530382	782.8730075867655	0.0	269.232831880909	802.1439616510329	0.0	143.50535458428524	780.2747253843148	0.0	67.82388281894772	543.3653571373253	0.0	244.29271036522826	585.4826887655987	0.0	293.9261799181018	700.2994265531253	0.0	308.872107434985	794.9849096132066	0.0	465.83778117736045	772.6961412756534	0.0	238.32520416502513	635.4417494826301	0.0	82.68866080508009	235.41990668514651	0.0	68.36136671294233	217.00219217744598	0.0	78.85306040618276	217.5070306815943	0.0	16.637460485567	224.20614711776514	0.0	31.802855492143035	227.12728852435384	0.0	5.060872200890958	330.2457891984361	0.0	-5.5222588952884335	497.92378160758415	0.0	51.29104025123462	550.3299836181933	0.0	81.45675016882971	546.6116740449613	0.0	98.29132575830172	543.053330076595	0.0	112.90906802767775	543.8519908274914	0.0	125.32598708012821	547.4600209112124	0.0	107.08194115517756	545.241389773505	0.0	121.84204836800264	549.2781945639684	0.0	128.27872521021294	552.0173358848916	0.0	132.01617097473036	558.9700060687508	0.0	103.52148671060921	553.7339929083779	0.0	119.86783578232433	557.1384004338421	0.0	125.70528011903508	559.2463991497419	0.0	129.37160283142688	562.899430266051	0.0	99.27203965855553	560.0521721267816	0.0	114.83571480670511	566.0135534997703	0.0	120.65954759176813	567.3512417887679	0.0	125.3121676013296	569.188248759825	0.0	94.95846664775146	569.8749777022002	0.0	106.4589564012332	573.9342953828159	0.0	112.05369616061392	575.7878418823528	0.0	116.67019562786065	575.3025948974357	0.0	42.8873649769714	329.8899876816243	0.0	113.53608775222348	443.1475268925263	0.0	225.91613526485773	502.8656255431847	0.0	249.8203241498945	507.04578975495895	0.0	259.3274792540477	507.58709893525514	0.0	270.1538342367964	510.55428375019085	0.0	277.28837702717345	516.8873118667325	0.0	270.3231792595528	490.4853616133319	0.0	286.69079831091216	496.26765266072766	0.0	288.5187069249216	506.0067355804923	0.0	286.5891787053079	515.850665528178	0.0	274.11274657451236	491.37751065393167	0.0	288.71985919992267	496.9732139791133	0.0	289.8391320229962	507.23959630113984	0.0	287.8050308545838	514.8181756049021	0.0	274.48997412359626	492.56588616331226	0.0	288.0301345972632	497.33874459878393	0.0	289.17960628378654	506.9692073406412	0.0	286.68683927414725	513.6072969092905	0.0	273.2305670954943	495.22027122047206	0.0	282.59568493056474	497.8296696689514	0.0	285.05073051733575	505.6279568571727	0.0	284.5156183923204	510.6348087056879	0.0	25.14474219127639	215.82182599977722	0.0	25.882192584769346	224.95369583619598	0.0	26.666585264388786	234.42199258953912	0.0	28.546184168592713	244.81884332932654	0.0	32.2161569980827	253.51806644109965	0.0	38.648449506173044	261.2024069144142	0.0	45.391171501332266	268.58383000320345	0.0	53.9654510755971	274.68028746886756	0.0	62.008389695278304	278.0710781307991	0.0	70.00279153641733	277.58457851229724	0.0	74.76396635328459	271.44873334269784	0.0	77.6081270527006	263.0407847152539	0.0	79.30714524533758	253.25807236388985	0.0	80.74986830467773	244.2372413040105	0.0	80.6660479632309	235.003892442183	0.0	80.34968122163562	225.45383826434835	0.0	80.15610860073572	215.08372562404097	0.0	59.7767942188457	209.95245088732082	0.0	64.57275922098698	207.6054432708935	0.0	69.34695913321671	207.057531739092	0.0	73.39118717716063	207.0151288230338	0.0	76.91510880116286	208.03461958845577	0.0	80.2829974071905	208.54508589734007	0.0	80.88346895818765	208.55322329886454	0.0	81.51587022365197	208.5522655778143	0.0	82.2940046898926	208.89566483584173	0.0	82.40657592221643	209.40540277513728	0.0	78.51749606083978	217.17125433123093	0.0	81.66359742725047	223.6429363948099	0.0	85.30742864492791	229.46260847048887	0.0	88.61599373922276	235.13335369830347	0.0	75.25441370470617	240.0388107654566	0.0	77.13824271107347	240.90591651352324	0.0	80.3297055530044	242.13107253374375	0.0	83.67726557213327	240.9631753216484	0.0	87.17111695642427	239.24040006844507	0.0	63.08771144375955	217.47023958470768	0.0	66.1801858748565	216.29482047651854	0.0	69.38916869029028	215.2625770251263	0.0	71.17314677607199	217.61955772283756	0.0	68.94328251316888	218.85593637479118	0.0	66.324020547885	218.58714031962663	0.0	78.97733694847363	216.91036678035096	0.0	79.6994953751767	216.84062978849275	0.0	79.92484296032413	216.48688600507091	0.0	79.91704141625164	216.89501486916865	0.0	79.91313137470817	217.53037350336442	0.0	79.82004311779073	216.87912051553252	0.0	67.88814040836918	253.83234975392452	0.0	74.09617275147444	251.83865787851101	0.0	78.99003438033238	249.96512503220035	0.0	80.32444569767905	250.87064100390975	0.0	80.70884886653161	250.85626992741854	0.0	80.6564353260662	253.41480717866298	0.0	78.80504456842205	255.34518604140868	0.0	78.83580603733814	257.8247269353759	0.0	78.97658263318992	259.569227189123	0.0	77.5740263341479	261.42912950249024	0.0	73.83394945032265	259.85538346167914	0.0	70.72739922082388	257.57966953342043	0.0	69.08084614591861	253.82832313018613	0.0	73.93877110283846	253.5424029959345	0.0	78.29174799154995	253.54373135455103	0.0	78.84756742954788	254.0309474920912	0.0	78.82796387443797	255.2590086485961	0.0	78.05272109963539	256.41277945084613	0.0	77.09418734479596	256.6951634209932	0.0	72.96199063843886	255.99276032019694	0.0	48.929986218960224	554.1382195586718	0.0	23.961388625081913	330.06512133362145	0.0
399	7.992527472527472	29.98632429590724	567.8956949985761	0.0	213.13015367329191	590.1314860197492	0.0	275.72315458346213	783.5637195138119	0.0	288.43200075927615	782.8652001272745	0.0	269.34384063222865	802.1214070145738	0.0	130.7767766550197	779.7297900987039	0.0	66.04912474895745	544.793820153327	0.0	255.461518025935	585.6216001715136	0.0	293.1736736766807	713.1560788911997	0.0	294.00114105222207	797.1291450093819	0.0	465.8399721283299	772.9583218533523	0.0	245.31431752774378	625.3916839741604	0.0	84.2615163601216	234.33187761367827	0.0	69.71150695572737	215.94951421626646	0.0	80.31514835827397	216.2355042947193	0.0	17.709323583492775	223.13209364472337	0.0	32.47185808737392	225.8748085245568	0.0	5.149962841301944	328.0538252532419	0.0	-5.155941659944255	497.1483726252155	0.0	62.047647432389375	544.7512679376512	0.0	90.95883421310741	539.745669358881	0.0	106.56267735798005	535.8189904892598	0.0	121.22438351280714	534.9301548241665	0.0	133.38467274958714	537.072955201328	0.0	114.97948990971797	532.8093250924774	0.0	129.6990785743248	534.4784304150511	0.0	137.28940370634487	536.4312253724108	0.0	142.78679531534118	542.8323603186298	0.0	112.46741419054754	539.9374044124662	0.0	129.1135829399232	541.0882579456793	0.0	135.92829914004375	542.5771780998191	0.0	140.86145565075293	546.1917421305232	0.0	109.47903661156587	546.4765695455798	0.0	125.16199075612757	549.7752472191368	0.0	131.83256925581645	550.5771636075197	0.0	137.0050267823362	552.9718992298427	0.0	106.62930917573978	556.511398352845	0.0	118.10822809919503	558.8108703478498	0.0	123.92927345003717	560.0444245774877	0.0	129.0329895648456	560.2688732901407	0.0	43.318296315760385	328.2255124924428	0.0	115.50049762831918	442.42925038401876	0.0	224.5152728141156	502.5125091463341	0.0	249.36624509026743	507.44580045579727	0.0	258.85895028879924	508.5262395753037	0.0	269.67300340969166	511.63538680435744	0.0	276.9767300006628	517.9281394764258	0.0	269.13736172514865	490.7603693292546	0.0	284.8575154756554	497.3795014013246	0.0	287.9490966584484	507.36815516224834	0.0	286.07730233369523	517.5426529073279	0.0	274.1146162976414	491.1818261206078	0.0	288.98304428873007	497.24001539067643	0.0	289.78601148343296	508.02877019016404	0.0	288.466955238424	515.7088479376447	0.0	276.03604323377135	490.9930808213996	0.0	289.75842907537657	496.717371737113	0.0	290.33902576466625	506.6546510048107	0.0	288.2944237119056	513.5672697632538	0.0	276.4955495336533	492.2717259938768	0.0	286.01270036324365	495.5646794337185	0.0	288.3327224663454	504.19569104693113	0.0	287.98645831037106	509.9203645866884	0.0	26.08363601481077	214.81339169681087	0.0	27.105810383666356	223.73636129515316	0.0	27.511630422851294	233.1858066470961	0.0	29.492162280855997	243.7594273132357	0.0	33.18164690237095	252.59738521630305	0.0	39.54837690019085	260.27997158620633	0.0	46.222566758177976	267.6120206738915	0.0	54.84974656044979	273.52453669028455	0.0	62.93771048931795	277.0755112023098	0.0	70.88295871870498	276.47613273740836	0.0	75.85438160700284	270.3769078722846	0.0	78.73617380292059	262.0701018431512	0.0	80.50860720776606	252.21963446781595	0.0	81.9410315498817	243.1404345136027	0.0	81.9304093445615	233.82540131610855	0.0	81.76846556246898	224.12562299139853	0.0	81.57222462313707	213.8959268438014	0.0	60.94978228332409	209.02648222665718	0.0	65.74779224153806	206.69498578985494	0.0	70.65662645711063	206.03110356382996	0.0	74.80558091419212	205.95743113411856	0.0	78.35329670341946	206.98353107494646	0.0	81.768609746706	207.4561780574183	0.0	82.36879400448677	207.47790803656716	0.0	82.84830407282921	207.47023244990396	0.0	83.89207635369631	207.6610561765101	0.0	83.91010961316128	208.07069877107082	0.0	79.93910622599915	216.03896428375165	0.0	83.23992315608433	222.61776243055186	0.0	86.98756137142341	228.48143611932565	0.0	90.35470495656718	234.2148005059366	0.0	76.61703516699403	239.38369130137573	0.0	78.61866627121093	239.93482097490167	0.0	81.72334499349456	241.18662836398596	0.0	85.23896573570096	240.12644479577992	0.0	88.80356262683962	238.20410794612326	0.0	64.12950366546629	216.58687479965963	0.0	67.39920709416185	215.30359629984682	0.0	70.64732847730443	214.21816437038774	0.0	72.45393185173562	216.70611791132532	0.0	70.2426853945659	218.06080320796178	0.0	67.46532974283015	217.71964202662127	0.0	80.61402978179454	215.69746684729972	0.0	81.18580018556037	215.6927570893935	0.0	81.39171067174512	215.10634311497782	0.0	81.38936538153932	215.68296987855655	0.0	81.38735828286222	216.2466619860853	0.0	81.39517491809032	215.6883397191386	0.0	68.9991671334686	253.09859050088238	0.0	75.29208353757596	251.1080920380773	0.0	80.15911107484607	249.20915078427558	0.0	81.65818743810075	250.10637973113282	0.0	81.9049035531478	249.88445933424615	0.0	81.84744657464306	252.46889896430793	0.0	80.06302648347007	254.28810646501745	0.0	80.08748524016559	256.803046785539	0.0	80.15514576040967	258.391801747809	0.0	78.62818022315706	260.4721377209561	0.0	74.84089747674325	258.96239319119763	0.0	71.73893861886488	256.746919361002	0.0	70.08277198969256	253.0890676257176	0.0	75.05809573907868	252.69300511615447	0.0	79.49390020386596	252.69436961109255	0.0	80.04572363962022	253.1482700044737	0.0	80.0317184714153	254.2753587016616	0.0	79.19113039133762	255.27676161844624	0.0	78.11382660555248	255.73475134297777	0.0	74.15926340542012	254.97773852896404	0.0	48.017898305957566	554.1430431478929	0.0	24.237778141473797	328.13670135330665	0.0
400	8.012558869701726	29.21729158519149	567.9704706243152	0.0	210.74244117821607	589.3893054452105	0.0	263.4721205806657	788.0895279577567	0.0	288.43375626739083	782.6819238457692	0.0	269.3637157326544	802.018896437521	0.0	118.09202409076822	779.8202555234108	0.0	64.28620174239856	546.3233981633722	0.0	265.43711304986414	585.3600711886917	0.0	291.0301289743356	733.6173047330857	0.0	285.7999825542181	798.7089987754284	0.0	465.8129296239938	773.0353494766933	0.0	251.8294478633765	620.3037366059057	0.0	85.78412918899676	233.91276240274976	0.0	70.86128683514993	215.56462313042897	0.0	81.73570596899413	215.50774231315222	0.0	18.627352405825118	222.64565047469446	0.0	33.22125689925367	225.2276863627964	0.0	5.304807210737417	327.0403277932584	0.0	-4.262566110046977	495.69576069432713	0.0	72.84505444912713	540.1344898295399	0.0	99.52669811832558	534.3622658927627	0.0	114.10170963094677	530.1644753111814	0.0	128.4933913065635	527.9479974564968	0.0	140.34056558689895	528.9575878318985	0.0	121.87808426618226	521.962303662377	0.0	136.3780671740657	521.5219972213903	0.0	145.20672773845067	523.0249578023409	0.0	152.4676896473918	529.0878947506983	0.0	120.28867069170866	527.6659391127549	0.0	136.9846598197859	526.7147344870575	0.0	145.1018533639247	528.0150204006927	0.0	151.60670027944485	531.7809793038251	0.0	118.44123079933127	534.5002873223117	0.0	134.2863023613396	534.9696404988232	0.0	141.88521231485194	535.6387126392684	0.0	147.70253111901317	539.2565292889091	0.0	116.82705139809114	544.4649021832511	0.0	128.48328045892652	545.1135809971678	0.0	134.58660980033272	546.1150818979281	0.0	140.2109061263584	547.7851083437114	0.0	43.860448780725534	327.5620617808086	0.0	117.10306211545398	442.63555225044416	0.0	224.52951480359343	502.78138730987587	0.0	249.25523785142684	508.1016336280175	0.0	258.45292090666476	509.54877758029545	0.0	269.5095098461285	512.9858192021329	0.0	276.7584287609025	519.1817370958696	0.0	268.56484227311944	491.1752118860824	0.0	283.42053686654447	498.6662073811087	0.0	288.10507081543045	509.0820964306063	0.0	285.80057605044124	519.6014365271975	0.0	274.4345637301911	491.1566930543001	0.0	289.24552601242317	497.54606847101564	0.0	289.96742010535394	508.9933032700635	0.0	289.1631676495946	517.2308783556343	0.0	277.7145769396657	489.8929546634372	0.0	291.2377257373736	496.1756828389513	0.0	291.60707536911895	506.8076522536768	0.0	289.91221697091606	514.3638465466057	0.0	279.5908289911701	490.3040576970342	0.0	289.11483478275994	494.3658148821294	0.0	291.2862944757899	503.7629995025485	0.0	291.1900375364954	510.2359402024562	0.0	26.811744373584148	214.3097452283275	0.0	28.03232004690268	223.32114863275072	0.0	28.153235153262166	232.82698913055611	0.0	30.295244086226397	243.40548923253147	0.0	33.90848732216108	252.40076270471556	0.0	40.33708067385624	260.09125897743775	0.0	47.00896464560594	267.37809739283193	0.0	55.687554239189986	272.97066705204	0.0	63.86388158527467	276.90680394350437	0.0	71.87250144094844	276.27313576194246	0.0	77.11658877978341	270.2433434416207	0.0	80.15541309022487	261.8196506626087	0.0	82.01137304419213	251.7903755558284	0.0	83.31035160598854	242.6196526452933	0.0	83.32951519059858	233.347126983083	0.0	83.28777967698697	223.38731235154245	0.0	83.147054910119	213.35969301576858	0.0	62.099477112517086	208.67293281854535	0.0	66.86292955404312	206.49204400084986	0.0	71.85348759365729	205.63670952118144	0.0	76.06848794602301	205.49629677632066	0.0	79.74733500775311	206.59492258836082	0.0	83.25663351523332	206.9984930837863	0.0	83.85137470749672	207.01717336242922	0.0	84.1915639251179	207.00784992494798	0.0	85.33839792767968	207.07592954924974	0.0	85.3882805120679	207.37132121713012	0.0	81.37380621311945	215.50593091378838	0.0	84.78505372087018	222.21483289592064	0.0	88.69597091880921	228.14951627444162	0.0	92.1269792736135	233.82533730025477	0.0	77.97310937408896	239.39212681258172	0.0	80.1668052624934	239.61051633877904	0.0	83.19981918300243	240.97857810905958	0.0	86.90581913400585	239.98625267856454	0.0	90.54177672548263	237.81300323136148	0.0	65.03228862482233	216.34818695979493	0.0	68.49410451121243	215.02539162814298	0.0	71.8186124169416	213.86470523047097	0.0	73.67573422197378	216.3918543486469	0.0	71.43053148841041	217.89816981493954	0.0	68.51640194386636	217.54647612090417	0.0	82.27739248961981	215.13269848800306	0.0	82.63813119258087	215.1543346266056	0.0	82.86127749482775	214.42554095691065	0.0	82.85573106049858	215.13564713295537	0.0	82.86023886296158	215.59207916312212	0.0	82.90762376770722	215.1923675427167	0.0	70.25964692307872	253.18801650532964	0.0	76.61428639124428	251.1406396408392	0.0	81.54976923047127	249.25719681910147	0.0	83.12401482163357	250.12665722752413	0.0	83.31298600187473	249.541216932489	0.0	83.19095170623953	252.0938826603122	0.0	81.53542925416092	253.86279406629512	0.0	81.54845288784138	256.3918403869065	0.0	81.57699915844182	257.8518894188491	0.0	79.92333289675472	260.1420079399447	0.0	76.02663966736831	258.7380833919592	0.0	72.87108084977754	256.67529978456076	0.0	71.20629237075434	253.17412218346317	0.0	76.33999453295897	252.64940384609892	0.0	80.77122538577073	252.65067122403087	0.0	81.34770575837807	252.9774392047164	0.0	81.41342576149222	253.87983572438728	0.0	80.46538669066689	254.7562986548834	0.0	79.28422290144829	255.44712791882793	0.0	75.39843887026915	254.58575323019284	0.0	46.751852681070034	554.1858560661378	0.0	24.603543648115636	327.30015941440155	0.0
401	8.03259026687598	27.7496446870649	567.0420482082334	0.0	215.40547453985607	589.2067958723316	0.0	248.28773145430563	785.8550919210688	0.0	288.4408949496874	782.3226779495352	0.0	269.37053725268333	801.8209429414394	0.0	107.23866965129467	780.2138488187442	0.0	62.85723808135697	547.4398797367754	0.0	272.07310575436986	585.1486222325215	0.0	285.86945354285405	753.332994190289	0.0	283.0474758490736	799.8283552298772	0.0	465.7508783305048	772.92335588085	0.0	257.1441394187161	618.7026739800972	0.0	87.3298766618897	233.90938643008144	0.0	71.95192958933183	215.57889543572358	0.0	83.20284859212673	215.17963647062425	0.0	19.525721632122547	222.54842474864162	0.0	33.99039509311688	225.00304065467512	0.0	5.395894882552765	326.9000642647381	0.0	-2.9975895725655657	493.3232368115023	0.0	83.59547120969907	536.3616238611662	0.0	108.31235984771772	530.2404867804685	0.0	122.23594007353631	525.7552008490957	0.0	136.14198054823785	522.5792728863555	0.0	147.99433096370876	523.2278832649455	0.0	129.14873148483784	513.0805103649471	0.0	143.587448707429	510.9387126544042	0.0	153.55506597590207	512.2017358178723	0.0	162.09522175326373	518.2412885242611	0.0	128.1255214830603	517.635360199176	0.0	144.7886491010469	514.8371052858031	0.0	154.26021275948062	516.2307402278599	0.0	162.2498574998626	520.3547243655792	0.0	127.09620535151562	524.7422914008142	0.0	143.18956591409804	522.6823314428044	0.0	151.6448056182398	523.4178940753118	0.0	158.2149297788987	528.6874195117689	0.0	126.4189296501134	534.6931439293134	0.0	138.27558973471042	533.9752564940617	0.0	144.74787691665748	535.0269042562737	0.0	150.8972492295095	538.2740459420909	0.0	44.493543955787814	327.1478451727492	0.0	118.08119943946436	443.18667499553914	0.0	225.96512397383586	503.1764339860763	0.0	249.3902978589186	508.66072201777155	0.0	258.2068021797716	510.4129914637253	0.0	269.71503747544745	514.2528222894388	0.0	276.87940513762214	520.3276371729524	0.0	268.70291906512944	491.67258649100376	0.0	282.88942184565855	499.54830721259725	0.0	288.8695687690304	510.33273195656716	0.0	286.03665711560035	521.219768493946	0.0	274.83774364068483	491.12334360982777	0.0	289.5260500041266	497.6056776548285	0.0	290.42418109532923	509.65153449363777	0.0	289.9285149275099	518.7854806248664	0.0	278.8979297121298	489.43216846563433	0.0	292.0601886032641	495.7089953932027	0.0	292.57777011185493	507.12114623276165	0.0	291.2660021263459	515.5981459705812	0.0	281.5424393432694	489.5147515864968	0.0	290.9320093180119	494.1049891267536	0.0	293.19443295381654	504.03928022996683	0.0	293.4422681575288	511.22372636087107	0.0	27.569919824504588	214.16071753224435	0.0	28.899920860227276	223.4002812362937	0.0	28.886660466320144	233.01097557498062	0.0	31.185738584325644	243.4766518644407	0.0	34.74495404294982	252.58778408445815	0.0	41.30664850665116	260.2539134742505	0.0	48.012119555328034	267.5244615494437	0.0	56.757811558300624	272.76617843930404	0.0	65.04385789656979	277.08599126829387	0.0	73.20220777026144	276.5599801308378	0.0	78.63342953474505	270.6537991742215	0.0	81.88418866603196	261.8985225540656	0.0	83.76452021732271	251.6267962567425	0.0	84.87358245643954	242.44646777324502	0.0	84.89583888946976	233.3117758871667	0.0	84.91909194997992	223.10718605112456	0.0	84.84208869400707	213.21147264175315	0.0	63.32017175691304	208.64555147664362	0.0	68.02787603925515	206.6821348551833	0.0	73.03907679726584	205.59525731559646	0.0	77.26651938244062	205.37486390606682	0.0	81.17462535873108	206.64730719792024	0.0	84.75406328500786	206.94049390294413	0.0	85.3981829543971	206.9526562038737	0.0	85.60331477544345	206.97394220106293	0.0	86.67285193475848	206.97448128468142	0.0	86.8781470242598	207.1728217787705	0.0	82.86428573422499	215.40486435443094	0.0	86.31287878954888	222.13768715005966	0.0	90.37816983312283	228.14882449380994	0.0	93.90295955735553	233.70893172294478	0.0	79.38647779302798	239.65469646319454	0.0	81.81629041929149	239.6539163567427	0.0	84.79392640005324	241.14448688159285	0.0	88.59221122602531	240.16396568012894	0.0	92.33576048875524	237.74462418818703	0.0	66.00015894974041	216.4579972863967	0.0	69.62685211501075	215.1690223198545	0.0	72.99388891759725	213.96364687672238	0.0	74.94831820554687	216.46309076582986	0.0	72.63358892039811	218.05814986237075	0.0	69.63377673367415	217.68383460874597	0.0	83.93967701234418	214.97142441872154	0.0	84.12169616282142	214.99914706360084	0.0	84.35142607299369	214.2439908429483	0.0	84.33410203607933	215.02062860138037	0.0	84.35187848991562	215.42493885453646	0.0	84.40350872381963	215.16627560686152	0.0	71.76348154119111	253.53522363885094	0.0	78.08295727421466	251.4888389236629	0.0	83.20719312926911	249.6364308445154	0.0	84.75934002772732	250.484795657046	0.0	84.98373884884127	249.46888539610887	0.0	84.77652975258177	251.93503773286037	0.0	83.2729095300976	253.69440643636582	0.0	83.27711205676722	256.2325462918405	0.0	83.29554671566109	257.6860447041127	0.0	81.55416018213755	260.03489064124284	0.0	77.56041211839965	258.7385244000623	0.0	74.28206961108302	256.8780301923076	0.0	72.55826292353389	253.52418489736428	0.0	77.86636321129917	252.98204679768983	0.0	82.27648303017905	252.98313867468335	0.0	82.83375747199503	253.0881053847032	0.0	83.05596546878795	253.71524606700316	0.0	81.97305286672649	254.54496016889846	0.0	80.75291397743183	255.3979389559766	0.0	76.8081573282754	254.46304884542576	0.0	45.30324933522644	554.1886944292861	0.0	24.966318564800687	327.02923147662574	0.0
